<?xml version="1.0" encoding="UTF-8"?>
<svg id="Livello_2" data-name="Livello 2" xmlns="http://www.w3.org/2000/svg" viewBox="0 0 97.89 24.36">
  <defs>
    <style>
      .cls-1 {
        fill: #1e1d3c;
      }

      .cls-1, .cls-2, .cls-3 {
        stroke-width: 0px;
      }

      .cls-2 {
        fill: #1f1c3d;
      }

      .cls-3 {
        fill: #fff;
      }
    </style>
  </defs>
  <g id="Livello_1-2" data-name="Livello 1">
    <g>
      <path class="cls-2" d="M31.31,8.41h5.51v1.72h-3.64v1.46h3.24v1.72h-3.24v1.51h3.7v1.72h-5.57v-8.14Z"/>
      <path class="cls-2" d="M38.29,10.53h1.75v.59c.48-.48,1.11-.73,1.86-.73,1.41,0,2.34.91,2.34,2.29v1.72c0,.31.18.48.49.48h.12v1.66h-.49c-1.24,0-1.87-.6-1.87-1.77v-1.52c0-.73-.47-1.2-1.18-1.2-.76,0-1.27.48-1.27,1.23v3.27h-1.75v-6.01Z"/>
      <path class="cls-2" d="M45.94,10.53h1.75v.84c.47-.59,1.11-.93,1.85-.93h.24v1.77h-.24c-1.19,0-1.85.6-1.85,1.53v2.81h-1.75v-6.01Z"/>
      <path class="cls-2" d="M50.83,8.73c0-.6.47-1.05,1.08-1.05s1.09.45,1.09,1.05-.47,1.06-1.09,1.06-1.08-.45-1.08-1.06ZM51.04,10.53h1.75v6.01h-1.75v-6.01Z"/>
      <path class="cls-2" d="M54.15,13.54c0-1.79,1.42-3.15,3.31-3.15,1.65,0,2.96,1.05,3.16,2.51h-1.86c-.17-.51-.69-.85-1.3-.85-.86,0-1.5.64-1.5,1.49s.64,1.49,1.5,1.49c.61,0,1.13-.34,1.3-.85h1.86c-.2,1.46-1.51,2.51-3.16,2.51-1.89,0-3.31-1.36-3.31-3.15Z"/>
      <path class="cls-2" d="M61.58,13.54c0-1.79,1.42-3.15,3.31-3.15s3.31,1.36,3.31,3.15-1.42,3.15-3.31,3.15-3.31-1.36-3.31-3.15ZM66.38,13.54c0-.85-.64-1.49-1.5-1.49s-1.5.64-1.5,1.49.64,1.49,1.5,1.49,1.5-.64,1.5-1.49Z"/>
      <path class="cls-2" d="M72.18,15.23l3.92-5.11h-3.87v-1.72h6.43v1.31l-3.92,5.11h4v1.72h-6.56v-1.31Z"/>
      <path class="cls-2" d="M79.61,13.54c0-1.79,1.42-3.15,3.31-3.15s3.31,1.36,3.31,3.15-1.42,3.15-3.31,3.15-3.31-1.36-3.31-3.15ZM84.42,13.54c0-.85-.64-1.49-1.5-1.49s-1.5.64-1.5,1.49.64,1.49,1.5,1.49,1.5-.64,1.5-1.49Z"/>
      <path class="cls-2" d="M87.38,8.73c0-.6.47-1.05,1.08-1.05s1.09.45,1.09,1.05-.47,1.06-1.09,1.06-1.08-.45-1.08-1.06ZM87.58,10.53h1.75v6.01h-1.75v-6.01Z"/>
      <path class="cls-2" d="M90.72,13.54c0-1.79,1.28-3.15,2.96-3.15.74,0,1.38.27,1.85.74v-.6h1.75v3.87c0,.31.18.48.49.48h.12v1.66h-.49c-.84,0-1.39-.27-1.67-.81-.49.59-1.2.96-2.05.96-1.68,0-2.96-1.36-2.96-3.15ZM95.53,13.54c0-.85-.64-1.49-1.5-1.49s-1.49.64-1.49,1.49.64,1.49,1.49,1.49,1.5-.64,1.5-1.49Z"/>
    </g>
    <rect class="cls-1" width="24.36" height="24.36" rx="3.17" ry="3.17"/>
    <g>
      <polygon class="cls-3" points="13.8 10.27 10.56 14.1 5.17 14.1 5.17 10.27 13.8 10.27"/>
      <rect class="cls-3" x="5.17" y="16.65" width="14.02" height="3.82"/>
      <polygon class="cls-3" points="19.19 3.89 15.95 7.72 11.54 7.72 11.54 3.9 15.37 3.9 15.37 3.89 19.19 3.89"/>
      <rect class="cls-3" x="5.17" y="3.89" width="3.82" height="3.82"/>
    </g>
  </g>
</svg>